<?xml version="1.0" encoding="utf-8"?>
<!-- Svg Vector Icons : http://www.onlinewebfonts.com/icon -->
<!DOCTYPE svg PUBLIC "-//W3C//DTD SVG 1.1//EN" "http://www.w3.org/Graphics/SVG/1.1/DTD/svg11.dtd">
<svg version="1.1" xmlns="http://www.w3.org/2000/svg" xmlns:xlink="http://www.w3.org/1999/xlink" x="0px" y="0px" viewBox="0 0 1000 1000" enable-background="new 0 0 1000 1000" xml:space="preserve">
<metadata> Svg Vector Icons : http://www.onlinewebfonts.com/icon </metadata>
<g><path d="M411.4,990c-0.1,0-0.3,0-0.4,0c-262.3-4-389.8-55.3-389.8-156.6v-29.2c0-118.8,231.5-208.4,277.8-225.2c4.1-1.7,24.2-11.9,12.8-47.1c-65.6-69.4-107.6-174.6-107.6-269.7C204.3,88,324.2,10,443.2,10c140.9,0,239.4,103.7,239.4,252.1c0,96.1-41.4,199.1-108.3,269.9c-6.9,23.5-4,35-1.5,39.9c2.7,5.2,6.7,6.7,7.1,6.8c9.4,3.1,18.8,6.4,28.2,9.9c8.5,3.2,14.8,10.4,16.7,19.2c1.9,8.9-0.8,18.1-7.2,24.5L503.1,745.8c-0.3,0.3-0.7,0.6-1,1c-9.1,8.1-15.7,18.4-18.9,29.7l-44.7,152.2c-2.6,9-3,19-0.9,29.9c1.4,7.8-0.7,15.9-5.8,22.1C426.7,986.6,419.3,990,411.4,990z M443.1,63.1c-85.7,0-185.8,52.1-185.8,199c0,83.9,37.9,176.9,96.7,236.9c2.5,2.6,4.5,5.7,5.8,9.1c11.2,29.5,11.6,56.1,1.1,79c-10.4,22.8-30.1,36.8-43.7,41.8C176.5,679.8,74.4,753.5,74.4,804.2v29.2c0,59.7,112.2,96.8,309,102.9c0.6-7.8,1.9-15.3,4.1-22.6l44.6-152.1c6-20.5,17.8-39.2,34.1-53.9l84.9-84.1c-8.4-5-18.6-13.5-25.7-27.7c-11.3-22.3-11.3-51.1,0-85.5c0.9-2.7,2.2-5.4,4-7.7l1.3-1.8c0.7-0.9,1.4-1.7,2.2-2.5c58.7-60.4,96.6-153.2,96.6-236.3C629.4,115.2,529.1,63.1,443.1,63.1z"/><path d="M828.3,650.6l-0.2,0.2l-35-35l0.2-0.2l-46.8-46.8L533.4,779.9c-2.9,2.3-5.5,5.4-6.5,9.2l-44.7,152.3c-2,6.7-0.1,13.8,4.7,18.7c3.6,3.6,8.5,5.5,13.4,5.5c1.8,0,3.6-0.2,5.4-0.8l152.3-44.7c3.6-1.1,6.4-3.3,8.7-6l213.6-211.7L828.3,650.6z M553.4,911.4l-17.8-17.8l24.1-81.9l10.2,10.2l50.3,4.1l2.8,49l12.3,12.3L553.4,911.4z"/><path d="M765.8,547.5l133.8,133.8l30.6-28.7L796.4,518.8L765.8,547.5z"/><path d="M965.4,545.6l-64.1-64.1c-17.7-17.8-46.3-17.9-63.8-0.4L817.8,501l128.2,128.2l19.7-19.9C983.2,591.8,983.1,563.3,965.4,545.6L965.4,545.6z"/></g>
</svg>