<svg width="151" height="151" viewBox="0 0 151 151" fill="none" xmlns="http://www.w3.org/2000/svg">
<circle cx="75.6057" cy="75.6087" r="75.1553" fill="#009639"/>
<g clip-path="url(#clip0_156_1427)">
<path d="M75.6057 82.25C92.1732 82.25 105.606 70.4975 105.606 56C105.606 41.5025 92.1732 29.75 75.6057 29.75C59.0382 29.75 45.6057 41.5025 45.6057 56C45.6057 62.6 48.392 68.6375 52.9932 73.25C52.6295 77.06 51.4295 81.2375 50.102 84.3725C49.8057 85.07 50.3795 85.85 51.1257 85.73C59.5857 84.3425 64.6145 82.2125 66.8007 81.1025C69.6729 81.8685 72.6332 82.2543 75.6057 82.25V82.25Z" fill="#FAFAFA"/>
</g>
<path d="M40.825 107.857C40.7227 106.993 40.3079 106.323 39.5807 105.846C38.8534 105.368 37.9613 105.13 36.9045 105.13C36.1318 105.13 35.4557 105.255 34.8761 105.505C34.3023 105.755 33.8534 106.099 33.5295 106.536C33.2113 106.974 33.0523 107.471 33.0523 108.028C33.0523 108.493 33.1631 108.894 33.3846 109.229C33.6119 109.559 33.9017 109.834 34.254 110.056C34.6062 110.272 34.9756 110.451 35.3619 110.593C35.7483 110.729 36.1034 110.84 36.4273 110.925L38.2 111.403C38.6545 111.522 39.1602 111.687 39.717 111.897C40.2795 112.107 40.8165 112.394 41.3278 112.758C41.8449 113.116 42.271 113.576 42.6062 114.138C42.9415 114.701 43.1091 115.391 43.1091 116.209C43.1091 117.153 42.8619 118.005 42.3676 118.766C41.879 119.528 41.1631 120.133 40.2199 120.582C39.2824 121.03 38.1432 121.255 36.8023 121.255C35.5523 121.255 34.4699 121.053 33.5551 120.65C32.646 120.246 31.9301 119.684 31.4074 118.962C30.8903 118.241 30.5977 117.403 30.5295 116.448H32.7113C32.7682 117.107 32.9898 117.653 33.3761 118.084C33.7682 118.51 34.2625 118.829 34.8591 119.039C35.4613 119.243 36.1091 119.346 36.8023 119.346C37.6091 119.346 38.3335 119.215 38.9756 118.954C39.6176 118.687 40.1261 118.317 40.5011 117.846C40.8761 117.368 41.0636 116.812 41.0636 116.175C41.0636 115.596 40.9017 115.124 40.5778 114.76C40.254 114.397 39.8278 114.101 39.2994 113.874C38.771 113.647 38.2 113.448 37.5863 113.278L35.4386 112.664C34.075 112.272 32.9954 111.712 32.2 110.985C31.4045 110.258 31.0068 109.306 31.0068 108.13C31.0068 107.153 31.271 106.3 31.7994 105.573C32.3335 104.84 33.0494 104.272 33.9471 103.868C34.8506 103.459 35.8591 103.255 36.9727 103.255C38.0977 103.255 39.0977 103.457 39.9727 103.86C40.8477 104.258 41.5409 104.803 42.0523 105.496C42.5693 106.189 42.842 106.976 42.8704 107.857H40.825ZM54.5615 115.596V107.857H56.5729V120.948H54.5615V118.732H54.4251C54.1183 119.397 53.641 119.962 52.9933 120.428C52.3456 120.888 51.5274 121.118 50.5388 121.118C49.7206 121.118 48.9933 120.939 48.3569 120.582C47.7206 120.218 47.2206 119.672 46.8569 118.945C46.4933 118.212 46.3115 117.289 46.3115 116.175V107.857H48.3229V116.039C48.3229 116.993 48.5899 117.755 49.124 118.323C49.6638 118.891 50.3513 119.175 51.1865 119.175C51.6865 119.175 52.195 119.047 52.7121 118.792C53.2348 118.536 53.6723 118.144 54.0246 117.616C54.3825 117.087 54.5615 116.414 54.5615 115.596ZM60.2568 125.857V107.857H62.2V109.937H62.4386C62.5863 109.709 62.7909 109.42 63.0523 109.067C63.3193 108.709 63.7 108.391 64.1943 108.113C64.6943 107.829 65.3704 107.687 66.2227 107.687C67.325 107.687 68.2966 107.962 69.1375 108.513C69.9784 109.064 70.6346 109.846 71.1062 110.857C71.5778 111.868 71.8136 113.062 71.8136 114.437C71.8136 115.823 71.5778 117.025 71.1062 118.042C70.6346 119.053 69.9812 119.837 69.146 120.394C68.3108 120.945 67.3477 121.221 66.2568 121.221C65.4159 121.221 64.7426 121.082 64.2369 120.803C63.7312 120.519 63.342 120.198 63.0693 119.84C62.7966 119.476 62.5863 119.175 62.4386 118.937H62.2682V125.857H60.2568ZM62.2341 114.403C62.2341 115.391 62.379 116.263 62.6687 117.019C62.9585 117.769 63.3818 118.357 63.9386 118.783C64.4954 119.204 65.1773 119.414 65.9841 119.414C66.825 119.414 67.5267 119.192 68.0892 118.749C68.6574 118.3 69.0835 117.698 69.3676 116.942C69.6574 116.181 69.8023 115.334 69.8023 114.403C69.8023 113.482 69.6602 112.653 69.3761 111.914C69.0977 111.17 68.6744 110.582 68.1062 110.15C67.5437 109.712 66.8363 109.493 65.9841 109.493C65.1659 109.493 64.4784 109.701 63.9216 110.116C63.3648 110.525 62.9443 111.099 62.6602 111.837C62.3761 112.57 62.2341 113.425 62.2341 114.403ZM74.8818 125.857V107.857H76.825V109.937H77.0636C77.2113 109.709 77.4159 109.42 77.6773 109.067C77.9443 108.709 78.325 108.391 78.8193 108.113C79.3193 107.829 79.9954 107.687 80.8477 107.687C81.95 107.687 82.9216 107.962 83.7625 108.513C84.6034 109.064 85.2596 109.846 85.7312 110.857C86.2028 111.868 86.4386 113.062 86.4386 114.437C86.4386 115.823 86.2028 117.025 85.7312 118.042C85.2596 119.053 84.6062 119.837 83.771 120.394C82.9358 120.945 81.9727 121.221 80.8818 121.221C80.0409 121.221 79.3676 121.082 78.8619 120.803C78.3562 120.519 77.967 120.198 77.6943 119.84C77.4216 119.476 77.2113 119.175 77.0636 118.937H76.8932V125.857H74.8818ZM76.8591 114.403C76.8591 115.391 77.004 116.263 77.2937 117.019C77.5835 117.769 78.0068 118.357 78.5636 118.783C79.1204 119.204 79.8023 119.414 80.6091 119.414C81.45 119.414 82.1517 119.192 82.7142 118.749C83.2824 118.3 83.7085 117.698 83.9926 116.942C84.2824 116.181 84.4273 115.334 84.4273 114.403C84.4273 113.482 84.2852 112.653 84.0011 111.914C83.7227 111.17 83.2994 110.582 82.7312 110.15C82.1687 109.712 81.4613 109.493 80.6091 109.493C79.7909 109.493 79.1034 109.701 78.5466 110.116C77.9898 110.525 77.5693 111.099 77.2852 111.837C77.0011 112.57 76.8591 113.425 76.8591 114.403ZM94.825 121.221C93.6432 121.221 92.6062 120.939 91.7142 120.377C90.8278 119.814 90.1346 119.028 89.6346 118.016C89.1403 117.005 88.8932 115.823 88.8932 114.471C88.8932 113.107 89.1403 111.917 89.6346 110.9C90.1346 109.883 90.8278 109.093 91.7142 108.53C92.6062 107.968 93.6432 107.687 94.825 107.687C96.0068 107.687 97.0409 107.968 97.9273 108.53C98.8193 109.093 99.5125 109.883 100.007 110.9C100.507 111.917 100.757 113.107 100.757 114.471C100.757 115.823 100.507 117.005 100.007 118.016C99.5125 119.028 98.8193 119.814 97.9273 120.377C97.0409 120.939 96.0068 121.221 94.825 121.221ZM94.825 119.414C95.7227 119.414 96.4613 119.184 97.0409 118.724C97.6204 118.263 98.0494 117.658 98.3278 116.908C98.6062 116.158 98.7454 115.346 98.7454 114.471C98.7454 113.596 98.6062 112.78 98.3278 112.025C98.0494 111.269 97.6204 110.658 97.0409 110.192C96.4613 109.726 95.7227 109.493 94.825 109.493C93.9273 109.493 93.1886 109.726 92.6091 110.192C92.0295 110.658 91.6006 111.269 91.3221 112.025C91.0437 112.78 90.9045 113.596 90.9045 114.471C90.9045 115.346 91.0437 116.158 91.3221 116.908C91.6006 117.658 92.0295 118.263 92.6091 118.724C93.1886 119.184 93.9273 119.414 94.825 119.414ZM103.827 120.948V107.857H105.77V109.834H105.907C106.145 109.187 106.577 108.661 107.202 108.258C107.827 107.854 108.532 107.653 109.316 107.653C109.463 107.653 109.648 107.655 109.87 107.661C110.091 107.667 110.259 107.675 110.373 107.687V109.732C110.304 109.715 110.148 109.689 109.904 109.655C109.665 109.616 109.412 109.596 109.145 109.596C108.509 109.596 107.941 109.729 107.441 109.996C106.946 110.258 106.554 110.621 106.265 111.087C105.981 111.547 105.838 112.073 105.838 112.664V120.948H103.827ZM119.27 107.857V109.562H112.486V107.857H119.27ZM114.463 104.721H116.475V117.198C116.475 117.766 116.557 118.192 116.722 118.476C116.892 118.755 117.108 118.942 117.37 119.039C117.637 119.13 117.918 119.175 118.213 119.175C118.435 119.175 118.617 119.164 118.759 119.141C118.901 119.113 119.015 119.09 119.1 119.073L119.509 120.88C119.373 120.931 119.182 120.982 118.938 121.033C118.694 121.09 118.384 121.118 118.009 121.118C117.441 121.118 116.884 120.996 116.338 120.752C115.799 120.508 115.35 120.135 114.992 119.635C114.64 119.135 114.463 118.505 114.463 117.743V104.721Z" fill="white"/>
<defs>
<clipPath id="clip0_156_1427">
<rect width="60" height="60" fill="white" transform="translate(45.6057 26)"/>
</clipPath>
</defs>
</svg>
